<svg width="70" height="70" viewBox="0 0 70 70" fill="none" xmlns="http://www.w3.org/2000/svg">
<path d="M15.8458 51.4099V29.2755C15.8458 27.5189 18.7533 26.095 22.34 26.095H18.4942C14.9074 26.095 12 27.5189 12 29.2755V51.4099C12 53.0033 14.6376 54.295 17.8911 54.295H21.7369C18.4834 54.295 15.8458 53.0033 15.8458 51.4099Z" fill="#538FFB"/>
<path opacity="0.1" d="M60.1022 61.0261C58.7895 63.8131 56.1224 65.6767 53.3595 66.9058C51.1473 67.8833 48.8089 68.5252 46.4175 68.8116C45.9594 68.8675 45.4999 68.9109 45.0389 68.9418C43.861 69.0207 42.6792 69.0194 41.5015 68.9377C40.793 68.8892 40.087 68.8118 39.3835 68.7053C36.9391 68.3384 34.5559 67.6245 32.3022 66.5839C31.6517 66.2825 31.0144 65.9535 30.3903 65.5969C29.3479 65.0025 28.3492 64.3305 27.402 63.5863C27.1924 63.4216 26.9855 63.2533 26.7812 63.0814L26.6972 63.0107C26.5365 62.8745 26.3774 62.7351 26.2157 62.5999C25.9471 62.3684 25.6619 62.1579 25.3626 61.9704C25.3424 61.9582 25.3221 61.946 25.3013 61.9343C25.246 61.9012 25.1896 61.8702 25.1323 61.8407C25.0142 61.7794 24.8931 61.7244 24.7695 61.6759C24.1986 61.4522 23.5872 61.3709 22.9674 61.3846C22.8646 61.3846 22.7618 61.3917 22.6585 61.3988C22.5142 61.409 22.3694 61.4242 22.225 61.4436L22.1716 61.4512C21.7117 61.5182 21.257 61.6186 20.8109 61.7517C20.1219 61.9551 19.4453 62.2094 18.7642 62.4387C18.475 62.5368 18.1854 62.6304 17.8933 62.7143L17.829 62.7326C17.4136 62.8528 16.9906 62.9439 16.5632 63.0051C15.5918 63.1329 14.6053 63.0512 13.6663 62.7651L13.6337 62.7555L13.5734 62.7372L13.4908 62.7107C13.3524 62.666 13.2152 62.617 13.0791 62.5638L12.9966 62.5312C12.8647 62.479 12.7357 62.4229 12.6095 62.3629L12.527 62.3243C12.3952 62.2612 12.2662 62.1946 12.14 62.1244C12.0945 62.1 12.0495 62.0736 12.0051 62.0487C11.8706 61.9714 11.7388 61.8904 11.6096 61.8056C11.4726 61.7158 11.3384 61.622 11.2073 61.5244C11.1467 61.4797 11.0867 61.4337 11.0274 61.3866C10.6855 61.1176 10.3653 60.8205 10.07 60.4983C10.0537 60.4815 10.0384 60.4642 10.023 60.4474C9.94445 60.36 9.86734 60.271 9.79271 60.18C9.76503 60.1464 9.73735 60.1128 9.71017 60.0783C9.62153 59.9671 9.53602 59.8533 9.45364 59.7371C9.44128 59.7203 9.42942 59.703 9.41756 59.6862C9.07985 59.2057 8.79987 58.685 8.58373 58.1353C8.57681 58.1185 8.57039 58.1013 8.56445 58.0845C8.49855 57.9099 8.43842 57.7324 8.38405 57.5521C8.3618 57.4768 8.34055 57.3995 8.32177 57.3243C8.31534 57.3019 8.30941 57.279 8.30397 57.2567C8.03114 56.1517 8 55.003 8 53.861C8 53.7277 8 53.5947 8 53.4618C8.00791 51.6145 8.03559 49.7356 8.30051 47.9137C8.30051 47.901 8.30397 47.8882 8.30595 47.876C8.39462 47.2627 8.51523 46.6547 8.66726 46.0546C8.82638 45.425 9.02973 44.8081 9.27571 44.2088C9.88514 42.7342 10.7714 41.3923 11.7554 40.1485C12.9417 38.652 14.3009 37.271 15.8149 36.1314C16.0323 35.9677 16.2528 35.8087 16.4762 35.6545L16.5795 35.5848C16.6156 35.5599 16.6517 35.534 16.6877 35.5121C16.7619 35.4613 16.836 35.4135 16.9112 35.3651L16.9952 35.3112L17.1553 35.2095L17.2048 35.1806L17.2903 35.1297L17.3748 35.0789C17.4736 35.0189 17.5736 34.9602 17.6748 34.9029C18.1068 34.6551 18.549 34.4287 19.0014 34.2236C19.1349 34.1629 19.2691 34.1044 19.4042 34.0482C20.0176 33.7912 20.6477 33.5786 21.2899 33.412C21.5271 33.3503 21.7659 33.2961 22.0061 33.2493C22.2894 33.193 22.5743 33.1464 22.8607 33.1095C23.3163 33.0505 23.7746 33.0154 24.2337 33.0042C27.4623 32.9234 30.7235 34.0044 33.2536 36.0765C34.2619 36.9023 35.1679 37.8801 36.3003 38.5132C37.2888 39.0644 38.4459 39.2927 39.5046 38.859C40.3795 38.5005 40.9489 38.3225 41.9315 38.3769C43.9647 38.4948 45.9693 38.926 47.878 39.6563C47.9551 39.6853 48.0322 39.7153 48.1088 39.7453C53.0866 41.7055 57.3665 45.598 59.5897 50.6C59.6483 50.7322 59.7055 50.8654 59.7612 50.9997C61.0873 54.1854 61.5658 57.9202 60.1022 61.0261Z" fill="#02275D"/>
<mask id="path-3-inside-1" fill="white">
<path d="M52.3591 36.2715V11C52.3591 9.34314 51.016 8 49.3591 8H19.5478C17.891 8 16.5479 9.34315 16.5479 11V46.0582"/>
</mask>
<path d="M54.3591 36.2715V11H50.3591V36.2715H54.3591ZM49.3591 6H19.5478V10H49.3591V6ZM14.5479 11V46.0582H18.5479V11H14.5479ZM19.5478 6C16.7864 6 14.5479 8.23858 14.5479 11H18.5479C18.5479 10.4477 18.9956 10 19.5478 10V6ZM54.3591 11C54.3591 8.23857 52.1205 6 49.3591 6V10C49.9114 10 50.3591 10.4477 50.3591 11H54.3591Z" fill="#02275D" mask="url(#path-3-inside-1)"/>
<path d="M59 51.4098V34.9058C59 33.1492 57.0873 31.7253 54.7278 31.7253H35.7106C33.954 31.7253 32.3766 30.9249 31.7342 29.7078L30.8923 28.1124C30.25 26.8953 28.6725 26.095 26.9159 26.095H16.2722C13.9127 26.095 12 27.5189 12 29.2755V51.4098C12 53.0032 13.7351 54.295 15.8755 54.295H55.1246C57.2649 54.2949 59 53.0032 59 51.4098Z" fill="#02275D"/>
<path d="M27.068 21.6878C29.2662 21.6878 31.0482 19.9059 31.0482 17.7077C31.0482 15.5095 29.2662 13.7275 27.068 13.7275C24.8699 13.7275 23.0879 15.5095 23.0879 17.7077C23.0879 19.9059 24.8699 21.6878 27.068 21.6878Z" fill="#02275D"/>
<path d="M47.606 16.5025H34.8696C34.363 16.5025 33.9521 16.0916 33.9521 15.585C33.9521 15.0783 34.363 14.6675 34.8696 14.6675H47.606C48.1129 14.6675 48.5235 15.0783 48.5235 15.585C48.5235 16.0916 48.1129 16.5025 47.606 16.5025Z" fill="#02275D"/>
<path d="M47.3333 26.3008H42.1069C41.6001 26.3008 41.1895 25.89 41.1895 25.3833C41.1895 24.8767 41.6002 24.4658 42.1069 24.4658H47.3333C47.8402 24.4658 48.2508 24.8767 48.2508 25.3833C48.2508 25.89 47.8402 26.3008 47.3333 26.3008Z" fill="#02275D"/>
<path d="M47.606 21.5368H34.8696C34.363 21.5368 33.9521 21.1259 33.9521 20.6193C33.9521 20.1126 34.363 19.7018 34.8696 19.7018H47.606C48.1129 19.7018 48.5235 20.1126 48.5235 20.6193C48.5235 21.1259 48.1129 21.5368 47.606 21.5368Z" fill="#02275D"/>
</svg>
