<svg id="Layer_1" enable-background="new 0 0 512 512" height="60" viewBox="0 0 512 512" width="60" xmlns="http://www.w3.org/2000/svg"><g><path d="m509.657 2.342c-3.123-3.122-8.188-3.123-11.313 0l-18.584 18.583c-13.283-.965-55.544-1.14-87.702 31.016-20.307 20.307-13.803 54.439-10.442 67.128l-16.715 16.715c1.804-24.283-20.03-65.208-61.78-85.427l-6.802-25.385c-1.144-4.268-5.53-6.8-9.798-5.657-4.268 1.144-6.801 5.53-5.657 9.798l6.802 25.385c-7.477 11.02-28.76 47.532-16.99 91.461 6.069 22.651 29.061 34.429 44.191 39.858l-31.141 31.141c1.804-24.283-20.03-65.208-61.779-85.427l-6.802-25.384c-1.144-4.268-5.527-6.8-9.798-5.657-4.268 1.144-6.8 5.53-5.657 9.798l6.802 25.385c-7.478 11.02-28.761 47.532-16.99 91.461 6.069 22.651 29.061 34.43 44.191 39.859l-31.764 31.764c1.804-24.284-20.031-65.209-61.779-85.427l-6.802-25.385c-1.144-4.268-5.527-6.8-9.798-5.657-4.268 1.144-6.8 5.53-5.657 9.798l6.802 25.386c-7.478 11.02-28.761 47.532-16.99 91.461 6.069 22.651 29.061 34.429 44.191 39.858l-31.141 31.141c1.804-24.285-20.031-65.207-61.78-85.427l-6.802-25.385c-1.144-4.268-5.528-6.799-9.798-5.657-4.268 1.144-6.801 5.53-5.657 9.798l6.802 25.386c-7.478 11.02-28.761 47.532-16.99 91.461 6.07 22.651 29.062 34.43 44.191 39.859l-68.378 68.375c-3.125 3.125-3.125 8.189 0 11.314 3.125 3.124 8.189 3.123 11.313 0l68.379-68.379c5.429 15.129 17.208 38.122 39.859 44.191 32.271 8.645 66.136.194 91.46-16.99 27.444 7.353 25.96 7.076 27.461 7.076 3.532 0 6.765-2.357 7.723-5.932 1.144-4.268-1.389-8.654-5.657-9.798l-25.384-6.801c-20.256-41.824-61.216-63.577-85.428-61.781l31.141-31.141c5.429 15.13 17.208 38.122 39.859 44.191 31.998 8.572 65.863.379 91.46-16.989l25.386 6.802c4.304 1.152 8.664-1.425 9.798-5.657 1.144-4.268-1.389-8.654-5.657-9.798l-25.385-6.801c-20.232-41.776-61.167-63.581-85.427-61.782l31.763-31.763c5.429 15.129 17.208 38.122 39.859 44.191 32.272 8.645 66.135.194 91.46-16.99l25.386 6.803c4.266 1.141 8.653-1.385 9.798-5.657 1.144-4.268-1.389-8.654-5.657-9.798l-25.385-6.802c-20.231-41.774-61.166-63.582-85.426-61.781l31.14-31.139c5.429 15.13 17.208 38.123 39.859 44.192 32.271 8.645 66.136.193 91.46-16.99l25.386 6.802c4.304 1.152 8.664-1.425 9.798-5.657 1.144-4.268-1.389-8.654-5.657-9.798l-25.384-6.801c-20.232-41.776-61.168-63.582-85.428-61.781l16.715-16.715c22.756 6.027 50.47 6.215 67.127-10.441 32.158-32.158 31.983-74.42 31.017-87.703l18.583-18.583c3.123-3.123 3.123-8.189-.001-11.314zm-223.526 139.477c-9.124-34.049 5.778-63.794 12.983-75.502 12.104 6.543 39.875 24.851 48.996 58.894 4.639 17.315-9.15 35.676-17.465 44.807-1.193 1.1-2.242 2.111-3.133 2.998-10.204-2.869-36.228-11.967-41.381-31.197zm-81.174 81.174c-9.124-34.049 5.779-63.794 12.983-75.502 12.104 6.543 39.874 24.852 48.996 58.895 4.639 17.315-9.148 35.675-17.463 44.805-1.201 1.107-2.256 2.125-3.15 3.016-10.218-2.821-36.162-11.793-41.366-31.214zm-81.797 81.798c-9.128-34.068 5.795-63.828 12.996-75.521 12.087 6.486 39.813 24.687 48.983 58.913 4.64 17.314-9.148 35.675-17.463 44.805-1.201 1.107-2.256 2.125-3.15 3.016-10.217-2.82-36.162-11.79-41.366-31.213zm-81.175 81.174c-9.124-34.049 5.779-63.794 12.983-75.502 12.104 6.543 39.875 24.851 48.996 58.894 4.639 17.314-9.147 35.674-17.462 44.805-1.202 1.107-2.257 2.126-3.152 3.018-10.215-2.822-36.16-11.793-41.365-31.215zm100.658 22.07c34.049 9.123 52.358 36.902 58.894 48.995-11.72 7.211-41.46 22.107-75.502 12.984-19.425-5.205-28.396-31.157-31.214-41.365 12.237-12.282 31.094-25.1 47.822-20.614zm81.174-81.174c34.049 9.123 52.358 36.902 58.894 48.995-11.719 7.211-41.46 22.107-75.501 12.983-19.426-5.205-28.396-31.159-31.214-41.365.889-.893 1.905-1.945 3.009-3.143 27.193-24.769 44.913-17.47 44.812-17.47zm81.797-81.798c34.049 9.123 52.358 36.902 58.894 48.995-11.719 7.211-41.459 22.107-75.501 12.984-19.426-5.205-28.397-31.159-31.214-41.365.889-.892 1.904-1.944 3.008-3.142 27.19-24.767 44.914-17.472 44.813-17.472zm81.175-81.174c34.049 9.123 52.358 36.902 58.894 48.995-11.72 7.211-41.461 22.108-75.502 12.984-19.426-5.205-28.396-31.159-31.214-41.366.889-.892 1.905-1.945 3.009-3.143 9.132-8.317 27.496-22.111 44.813-17.47zm61.954-55.26c-14.314 14.314-41.545 8.942-51.64 6.296-2.6-10.099-7.912-37.488 6.268-51.668 24.943-24.941 58.189-26.897 71.901-26.506.426 13.711-1.473 46.822-26.529 71.878z"/></g></svg>