<svg width="60" height="70" viewBox="0 0 60 70" fill="none" xmlns="http://www.w3.org/2000/svg">
<path opacity="0.1" d="M57.1022 61.8046C55.7895 64.6691 53.1224 66.5844 50.3595 67.8476C48.1473 68.8522 45.8089 69.5121 43.4175 69.8064C42.9594 69.8638 42.4999 69.9084 42.0389 69.9401C40.861 70.0213 39.6792 70.0199 38.5015 69.936C37.793 69.8861 37.087 69.8065 36.3835 69.6971C33.9391 69.3201 31.5559 68.5863 29.3022 67.5168C28.6517 67.207 28.0144 66.8689 27.3903 66.5024C26.3479 65.8915 25.3492 65.2008 24.402 64.436C24.1924 64.2666 23.9855 64.0937 23.7812 63.917L23.6972 63.8444C23.5365 63.7043 23.3774 63.5611 23.2157 63.4221C22.9471 63.1841 22.6619 62.9679 22.3626 62.7751C22.3424 62.7626 22.3221 62.75 22.3013 62.738C22.246 62.704 22.1896 62.6721 22.1323 62.6418C22.0142 62.5789 21.8931 62.5224 21.7695 62.4725C21.1986 62.2426 20.5872 62.1589 19.9674 62.173C19.8646 62.173 19.7618 62.1804 19.6585 62.1877C19.5142 62.1981 19.3694 62.2138 19.225 62.2337L19.1716 62.2415C18.7117 62.3103 18.257 62.4135 17.8109 62.5504C17.1219 62.7594 16.4453 63.0207 15.7642 63.2564C15.475 63.3573 15.1854 63.4535 14.8933 63.5397L14.829 63.5585C14.4136 63.6821 13.9906 63.7756 13.5632 63.8386C12.5918 63.9699 11.6053 63.8859 10.6663 63.5919L10.6337 63.582L10.5734 63.5632L10.4908 63.536C10.3524 63.49 10.2152 63.4397 10.0791 63.385L9.99655 63.3515C9.86475 63.2979 9.73574 63.2402 9.60954 63.1786L9.527 63.1388C9.39519 63.074 9.26619 63.0056 9.13999 62.9334C9.09451 62.9084 9.04954 62.8812 9.00505 62.8556C8.87061 62.7761 8.73881 62.6929 8.60964 62.6058C8.47256 62.5134 8.33845 62.4171 8.2073 62.3168C8.14667 62.2708 8.0867 62.2236 8.02739 62.1751C7.68548 61.8986 7.3653 61.5933 7.06999 61.2621C7.05368 61.2449 7.03836 61.2271 7.02304 61.2099C6.94445 61.12 6.86734 61.0285 6.79271 60.935C6.76503 60.9005 6.73735 60.866 6.71017 60.8304C6.62153 60.7162 6.53602 60.5993 6.45364 60.4798C6.44128 60.4625 6.42942 60.4448 6.41756 60.4275C6.07985 59.9337 5.79987 59.3985 5.58373 58.8335C5.57681 58.8163 5.57039 58.7985 5.56445 58.7813C5.49855 58.6018 5.43842 58.4195 5.38405 58.2341C5.3618 58.1567 5.34055 58.0773 5.32177 58C5.31534 57.977 5.30941 57.9535 5.30397 57.9305C5.03114 56.7948 5 55.6142 5 54.4404C5 54.3035 5 54.1668 5 54.0302C5.00791 52.1315 5.03559 50.2005 5.30051 48.3279C5.30051 48.3149 5.30397 48.3018 5.30595 48.2893C5.39462 47.6589 5.51523 47.034 5.66726 46.4173C5.82638 45.7701 6.02973 45.1361 6.27571 44.5202C6.88514 43.0046 7.77136 41.6254 8.75545 40.3471C9.94169 38.809 11.3009 37.3896 12.8149 36.2184C13.0323 36.0501 13.2528 35.8867 13.4762 35.7282L13.5795 35.6566C13.6156 35.631 13.6517 35.6044 13.6877 35.5819C13.7619 35.5296 13.836 35.4805 13.9112 35.4308L13.9952 35.3754L14.1553 35.2709L14.2048 35.2411L14.2903 35.1889L14.3748 35.1366C14.4736 35.0749 14.5736 35.0147 14.6748 34.9558C15.1068 34.7011 15.549 34.4684 16.0014 34.2576C16.1349 34.1952 16.2691 34.1351 16.4042 34.0773C17.0176 33.8131 17.6477 33.5947 18.2899 33.4235C18.5271 33.3601 18.7659 33.3043 19.0061 33.2562C19.2894 33.1984 19.5743 33.1505 19.8607 33.1125C20.3163 33.0519 20.7746 33.0158 21.2337 33.0043C24.4623 32.9212 27.7235 34.0323 30.2536 36.162C31.2619 37.0107 32.1679 38.0157 33.3003 38.6664C34.2888 39.2329 35.4459 39.4675 36.5046 39.0217C37.3795 38.6533 37.9489 38.4704 38.9315 38.5263C40.9647 38.6474 42.9693 39.0906 44.878 39.8412C44.9551 39.871 45.0322 39.9018 45.1088 39.9326C50.0866 41.9473 54.3665 45.9479 56.5897 51.0889C56.6483 51.2248 56.7055 51.3617 56.7612 51.4997C58.0873 54.7739 58.5658 58.6125 57.1022 61.8046Z" fill="#02275D"/>
<path d="M49.2685 52.8323V57.6759C49.2685 58.2182 48.8293 58.6574 48.287 58.6574H12.4629C11.9207 58.6574 11.4814 58.2182 11.4814 57.6759V52.8323C11.4814 47.7727 15.6208 43.7597 20.6804 43.7106C22.3534 43.6928 23.8695 42.8693 24.7989 41.5428C29.0637 46.2821 28.0826 45.1917 29.645 46.9287C30.0351 47.3617 30.7148 47.3617 31.1049 46.9287C32.5059 45.3711 31.3622 46.6421 35.951 41.5428C36.8779 42.8657 38.3918 43.6928 40.0695 43.7106C45.1291 43.7597 49.2685 47.7727 49.2685 52.8323Z" fill="#02275D" fill-opacity="0.3"/>
<path d="M38.1137 43.3009C38.0985 43.3333 36.8876 48.8418 36.8954 48.8067C36.7356 49.5314 35.8184 49.7648 35.3317 49.2045C32.1104 45.495 32.5499 45.9787 32.2236 45.6845L35.9508 41.5427C36.4906 42.3132 37.239 42.9254 38.1137 43.3009Z" fill="#E8F3FF"/>
<path d="M24.7987 41.5428L28.4375 45.5865L25.4191 49.1634C24.9367 49.7351 24.0082 49.5059 23.8473 48.7753C23.8395 48.7404 22.6511 43.3331 22.6357 43.3007C23.5105 42.9254 24.2589 42.3132 24.7987 41.5428Z" fill="#E8F3FF"/>
<path d="M35.1765 39.8156C32.1539 41.0808 28.8322 41.179 25.5752 39.8156C25.7416 39.1253 25.7138 38.6783 25.7138 37.8011L25.7322 37.7557C28.6867 38.982 32.0592 38.9845 35.0195 37.7557L35.0379 37.8011C35.0379 38.6786 35.0103 39.1256 35.1765 39.8156Z" fill="#02275D" fill-opacity="0.5"/>
<path d="M23.2739 46.1743C18.4181 46.3951 14.5486 50.4032 14.5486 55.3131V58.6575H12.4629C11.9209 58.6575 11.4814 58.218 11.4814 57.676V52.84C11.4814 47.7787 15.6224 43.7626 20.6836 43.7105C21.3756 43.7034 22.0356 43.5581 22.636 43.301C22.6513 43.3334 23.2663 46.1393 23.2739 46.1743Z" fill="#E8F3FF"/>
<path d="M37.4756 46.1743C42.3315 46.3951 46.201 50.4032 46.201 55.3131V58.6575H48.2866C48.8286 58.6575 49.2681 58.218 49.2681 57.676V52.84C49.2681 47.7787 45.1271 43.7626 40.066 43.7105C39.3739 43.7034 38.714 43.5581 38.1135 43.301C38.0983 43.3334 37.4833 46.1393 37.4756 46.1743Z" fill="#02275D" fill-opacity="0.5"/>
<path d="M24.876 46.6956C25.0588 47.5261 25.2538 48.4107 25.4195 49.1628C24.9371 49.7346 24.0086 49.5062 23.8476 48.7754C23.3759 46.6331 22.646 43.3227 22.6357 43.3009C23.5105 42.9254 24.2589 42.3132 24.7987 41.5428L25.8464 42.7083C24.9459 43.8296 24.5644 45.2835 24.876 46.6956Z" fill="#E8F3FF"/>
<path d="M32.2238 45.6847L34.0554 58.6574H26.6943L28.4377 45.5865L29.6454 46.9281C30.0353 47.3612 30.7144 47.3612 31.1043 46.9281L32.2238 45.6847Z" fill="#02275D"/>
<path d="M29.7198 47.0109L28.1666 58.6574H26.6943L28.4377 45.5865L29.7198 47.0109Z" fill="#71A1F7"/>
<path d="M40.1195 42.7294C38.674 42.7294 37.3625 41.9933 36.6115 40.7602C36.3294 40.2972 35.7254 40.1505 35.2627 40.4325C34.7999 40.7145 34.653 41.3184 34.9351 41.7813C35.4575 42.6389 36.1646 43.3313 36.9879 43.8269L35.9707 48.4431L33.5183 45.6193C33.9635 45.1074 33.8561 44.5095 33.4726 44.176C33.0638 43.8205 32.4437 43.8635 32.0879 44.2726L30.3622 46.2571L26.0153 41.4271C26.3852 40.7168 26.6094 39.937 26.6735 39.1243C35.0865 41.6009 43.5023 35.2513 43.5023 26.5292V18.4167C43.5023 17.8746 43.0629 17.4352 42.5208 17.4352C41.9788 17.4352 41.5394 17.8746 41.5394 18.4167V26.5292C41.5394 32.6852 36.5311 37.6936 30.375 37.6936C24.2189 37.6936 19.2106 32.6853 19.2106 26.5292V18.1998C21.6034 18.0639 23.6386 16.5617 24.3639 13.839C28.4506 16.4562 33.0314 18.1518 37.8387 18.8247C38.3775 18.8998 38.8719 18.524 38.9468 17.9887C39.0219 17.452 38.6477 16.9559 38.1109 16.8806C33.2158 16.1955 28.4389 14.3634 24.1944 11.3586C23.5455 10.899 22.6419 11.3666 22.6458 12.166C22.646 12.1904 22.6368 14.6246 20.7903 15.7354C19.6227 16.4379 18.4418 16.211 18.2386 16.2088C17.737 16.204 17.3119 16.5804 17.2547 17.0769C17.2439 17.1719 17.2477 16.8486 17.2477 24.9308C16.5921 24.5907 16.1435 23.9139 16.1435 23.1351V11.1782C16.1435 9.89287 17.1892 8.84722 18.4745 8.84722C18.8758 8.84722 19.2368 8.60283 19.3858 8.23024C20.7265 4.8786 23.9252 2.71296 27.5351 2.71296H35.9521C40.792 2.71296 44.7292 6.6503 44.7292 11.49V23.1351C44.7292 23.6772 45.1686 24.1166 45.7106 24.1166C46.2527 24.1166 46.6921 23.6772 46.6921 23.1351V11.49C46.6921 5.56797 41.8743 0.75 35.9521 0.75H27.5351C23.3245 0.75 19.5707 3.15831 17.808 6.93591C15.7557 7.25722 14.1806 9.03726 14.1806 11.1782V23.1351C14.1806 25.0128 15.4943 26.5909 17.2576 27.0146C17.4408 32.0274 20.4474 36.3317 24.7315 38.38V38.6389C24.7315 39.7324 24.305 40.7597 23.5308 41.5319C22.1575 42.9012 20.4271 42.7294 20.6302 42.7294C15.0314 42.7294 10.5 47.2602 10.5 52.8597V58.6574C10.5 59.1994 10.9395 59.6389 11.4815 59.6389C12.0235 59.6389 12.463 59.1994 12.463 58.6574V52.8597C12.463 48.3455 16.1159 44.6923 20.6305 44.6924C21.06 44.6924 21.4888 44.6468 21.9128 44.5561L23.2823 50.7713C23.4557 51.5584 24.4541 51.8112 24.9819 51.2037L26.9155 48.9772L25.7207 58.5357C25.6535 59.0736 26.0351 59.5641 26.5729 59.6313C27.1117 59.6984 27.6013 59.3162 27.6686 58.7791L29.0494 47.7324C29.1118 47.8017 29.6574 48.4136 29.7273 48.4753C30.1325 48.8308 30.7496 48.7948 31.1098 48.3885C31.3039 48.1664 30.8018 48.7433 31.6984 47.7123L33.0817 58.779C33.1488 59.3161 33.6383 59.6984 34.1774 59.6312C34.7152 59.5639 35.0968 59.0734 35.0296 58.5356L33.8347 48.9771L35.7684 51.2036C36.2969 51.8122 37.2948 51.5569 37.4679 50.7712L38.8375 44.5557C39.2532 44.6441 39.6819 44.6922 40.1196 44.6922C44.6337 44.6923 48.287 48.3451 48.287 52.8597V58.6574C48.287 59.1994 48.7265 59.6389 49.2685 59.6389C49.8105 59.6389 50.25 59.1994 50.25 58.6574V52.8597C50.25 47.2607 45.7191 42.7292 40.1195 42.7294ZM24.7793 48.4431L23.7619 43.8255C24.1361 43.5995 24.4871 43.3305 24.8106 43.0228L27.1902 45.6669L24.7793 48.4431Z" fill="#02275D"/>
</svg>
