<svg id="Capa_1" enable-background="new 0 0 512 512" height="60" viewBox="0 0 512 512" width="60" xmlns="http://www.w3.org/2000/svg"><g><g><path d="m503.128 287.653c-3.295-3.464-7.926-5.451-12.705-5.451h-54.576l-39.239-37.241c-3.005-2.854-7.752-2.729-10.604.276-2.851 3.005-2.727 7.752.277 10.604l27.775 26.361h-235.625l88.165-83.679c16.626-15.778 42.672-15.776 59.296 0l34.865 33.091c3.005 2.853 7.752 2.729 10.603-.276 2.852-3.005 2.728-7.752-.276-10.603l-34.865-33.092c-22.417-21.273-57.533-21.273-79.948.001l-99.629 94.558h-54.575c-4.78 0-9.411 1.987-12.705 5.451-3.276 3.445-5.019 8.138-4.78 12.874 1.471 29.22 8.858 57.221 21.349 82.651l-98.589 107.889c-3.34 3.655-4.208 8.944-2.21 13.476 1.997 4.529 6.487 7.457 11.437 7.457h355.121c4.951 0 9.44-2.928 11.438-7.458s1.13-9.819-2.211-13.475l-23.405-25.613h46.771c7.035 0 13.996-2.332 19.603-6.567 18.949-14.318 35.276-31.604 48.529-51.379 2.306-3.441 1.386-8.101-2.055-10.406-3.441-2.306-8.099-1.386-10.406 2.055-12.32 18.385-27.498 34.454-45.111 47.762-3.018 2.28-6.768 3.536-10.56 3.536h-60.478l-30.498-33.376c-7.086-7.755-17.176-12.203-27.682-12.203-.001 0 0 0-.001 0-10.505 0-20.596 4.448-27.683 12.203l-18.724 20.49-13.162-14.404c-2.794-3.057-7.537-3.271-10.596-.477-3.058 2.794-3.271 7.538-.478 10.596l14.075 15.403-44.146 48.313h-162.67l108.873-119.144c4.315-4.723 10.213-7.322 16.609-7.322s12.295 2.6 16.61 7.322l27.016 29.564c2.794 3.058 7.539 3.272 10.596.477 3.058-2.794 3.271-7.538.478-10.596l-27.016-29.564c-7.087-7.756-17.177-12.203-27.683-12.203-10.505 0-20.596 4.447-27.683 12.203l-3.173 3.473c-10.072-22.183-16.04-46.326-17.304-71.437-.043-.848.34-1.438.669-1.783.28-.295.89-.788 1.835-.788h388.356c.945 0 1.556.494 1.835.788.329.346.712.936.67 1.783-1.221 24.251-6.828 47.759-16.665 69.87-1.684 3.785.02 8.218 3.804 9.901 3.786 1.682 8.217-.019 9.901-3.804 10.591-23.806 16.627-49.11 17.94-75.214.239-4.735-1.504-9.427-4.78-12.873zm-234.114 139.544c4.315-4.722 10.215-7.322 16.611-7.322s12.295 2.601 16.609 7.322l63.785 69.803h-160.789z"/><path d="m378.72 157.503c1.983 1.985 4.621 3.078 7.427 3.078 2.805 0 5.441-1.092 7.425-3.075l22.524-22.524c0-.001.001-.002.002-.003 4.091-4.094 4.09-10.754-.002-14.847l-22.524-22.524c-1.983-1.983-4.62-3.075-7.425-3.075-2.806 0-5.443 1.093-7.425 3.075l-22.522 22.522c-1.985 1.983-3.078 4.621-3.078 7.427 0 2.805 1.092 5.441 3.075 7.425zm7.427-46.107 16.16 16.16-16.16 16.16-16.16-16.16z"/><path d="m263.415 62.974c2.047 2.046 4.734 3.069 7.424 3.069 2.688 0 5.377-1.023 7.426-3.069l22.524-22.524c1.983-1.983 3.075-4.62 3.075-7.425 0-2.806-1.093-5.443-3.075-7.425l-22.524-22.525c-1.984-1.983-4.62-3.075-7.425-3.075-2.806 0-5.443 1.093-7.425 3.075l-22.522 22.522c-1.984 1.983-3.078 4.621-3.078 7.427 0 2.805 1.092 5.441 3.076 7.425zm7.425-46.11 16.16 16.16-16.16 16.16-16.16-16.16z"/><path d="m181.369 168.434c1.983 1.984 4.62 3.077 7.425 3.077 2.806 0 5.443-1.093 7.425-3.075l22.524-22.524c1.983-1.983 3.076-4.62 3.076-7.425 0-2.806-1.093-5.443-3.076-7.425l-22.523-22.522c-1.983-1.984-4.62-3.077-7.426-3.077-2.805 0-5.442 1.093-7.424 3.075l-22.522 22.522c-1.984 1.983-3.078 4.621-3.078 7.427 0 2.805 1.092 5.441 3.076 7.425zm7.426-46.108 16.16 16.16-16.16 16.16-16.16-16.16z"/><circle cx="118.454" cy="429.5" r="7.5"/><circle cx="150.454" cy="439.5" r="7.5"/><circle cx="293.454" cy="214.5" r="7.5"/><circle cx="283.454" cy="447.5" r="7.5"/><circle cx="257.454" cy="470.5" r="7.5"/><circle cx="254.454" cy="236.5" r="7.5"/><circle cx="284.454" cy="252.5" r="7.5"/><circle cx="103.454" cy="459.5" r="7.5"/><circle cx="147.454" cy="401.5" r="7.5"/></g></g></svg>